<?xml version="1.0" encoding="UTF-8" standalone="no"?>
<!DOCTYPE svg PUBLIC "-//W3C//DTD SVG 1.1//EN"
 "http://www.w3.org/Graphics/SVG/1.1/DTD/svg11.dtd">
<!-- Generated by graphviz version 2.40.1 (20161225.0304)
 -->
<!-- Title: dependencies Pages: 1 -->
<svg width="935pt" height="349pt"
 viewBox="0.00 0.00 935.00 349.00" xmlns="http://www.w3.org/2000/svg" xmlns:xlink="http://www.w3.org/1999/xlink">
<g id="graph0" class="graph" transform="scale(1 1) rotate(0) translate(4 345)">
<title>dependencies</title>
<polygon fill="#ffffff" stroke="transparent" points="-4,4 -4,-345 931,-345 931,4 -4,4"/>
<text text-anchor="start" x="442.5091" y="-42.4" font-family="sans-serif" font-weight="bold" font-size="14.00" fill="#000000">Legend</text>
<polygon fill="#ffffb3" stroke="transparent" points="229.5,-10 229.5,-30 249.5,-30 249.5,-10 229.5,-10"/>
<text text-anchor="start" x="253.129" y="-15.4" font-family="sans-serif" font-size="14.00" fill="#000000"> &#160;Declarations</text>
<polygon fill="#8dd3c7" stroke="transparent" points="342.5,-10 342.5,-30 362.5,-30 362.5,-10 342.5,-10"/>
<text text-anchor="start" x="366.2251" y="-15.4" font-family="sans-serif" font-size="14.00" fill="#000000"> &#160;Module</text>
<polygon fill="#80b1d3" stroke="transparent" points="428.5,-10 428.5,-30 448.5,-30 448.5,-10 428.5,-10"/>
<text text-anchor="start" x="452.2812" y="-15.4" font-family="sans-serif" font-size="14.00" fill="#000000"> &#160;Bootstrap</text>
<polygon fill="#fdb462" stroke="transparent" points="525.5,-10 525.5,-30 545.5,-30 545.5,-10 525.5,-10"/>
<text text-anchor="start" x="549.1732" y="-15.4" font-family="sans-serif" font-size="14.00" fill="#000000"> &#160;Providers</text>
<polygon fill="#fb8072" stroke="transparent" points="621.5,-10 621.5,-30 641.5,-30 641.5,-10 621.5,-10"/>
<text text-anchor="start" x="645.2258" y="-15.4" font-family="sans-serif" font-size="14.00" fill="#000000"> &#160;Exports</text>
<g id="clust1" class="cluster">
<title>cluster_ArticleCreateModule</title>
<polygon fill="none" stroke="#000000" stroke-dasharray="1,5" points="8,-70 8,-333 919,-333 919,-70 8,-70"/>
</g>
<g id="clust2" class="cluster">
<title>cluster_ArticleCreateModule_declarations</title>
<polygon fill="none" stroke="#000000" points="580,-143 580,-195 911,-195 911,-143 580,-143"/>
</g>
<g id="clust3" class="cluster">
<title>cluster_ArticleCreateModule_ArticleCreateComponent_providers</title>
<polygon fill="none" stroke="#000000" points="609,-78 609,-130 905,-130 905,-78 609,-78"/>
</g>
<g id="clust5" class="cluster">
<title>cluster_ArticleCreateModule_imports</title>
<polygon fill="none" stroke="#000000" points="16,-143 16,-195 572,-195 572,-143 16,-143"/>
</g>
<g id="clust6" class="cluster">
<title>cluster_ArticleCreateModule_exports</title>
<polygon fill="none" stroke="#000000" points="338,-273 338,-325 514,-325 514,-273 338,-273"/>
</g>
<!-- ArticleCreateComponent -->
<g id="node1" class="node">
<title>ArticleCreateComponent</title>
<polygon fill="#ffffb3" stroke="#000000" points="903.2324,-187 746.7676,-187 746.7676,-151 903.2324,-151 903.2324,-187"/>
<text text-anchor="middle" x="825" y="-164.8" font-family="Times,serif" font-size="14.00" fill="#000000">ArticleCreateComponent</text>
</g>
<!-- ArticleCreateModule -->
<g id="node3" class="node">
<title>ArticleCreateModule</title>
<polygon fill="#8dd3c7" stroke="#000000" points="493.4496,-252 490.4496,-256 469.4496,-256 466.4496,-252 358.5504,-252 358.5504,-216 493.4496,-216 493.4496,-252"/>
<text text-anchor="middle" x="426" y="-229.8" font-family="Times,serif" font-size="14.00" fill="#000000">ArticleCreateModule</text>
</g>
<!-- ArticleCreateComponent&#45;&gt;ArticleCreateModule -->
<g id="edge1" class="edge">
<title>ArticleCreateComponent&#45;&gt;ArticleCreateModule</title>
<path fill="none" stroke="#000000" d="M825,-187.2843C825,-208.3211 825,-240 825,-240 825,-240 503.6849,-240 503.6849,-240"/>
<polygon fill="#000000" stroke="#000000" points="503.6849,-236.5001 493.6849,-240 503.6849,-243.5001 503.6849,-236.5001"/>
</g>
<!-- PreventDoubleSubmit -->
<g id="node2" class="node">
<title>PreventDoubleSubmit</title>
<polygon fill="#ffffb3" stroke="#000000" points="728.4299,-187 587.5701,-187 587.5701,-151 728.4299,-151 728.4299,-187"/>
<text text-anchor="middle" x="658" y="-164.8" font-family="Times,serif" font-size="14.00" fill="#000000">PreventDoubleSubmit</text>
</g>
<!-- PreventDoubleSubmit&#45;&gt;ArticleCreateModule -->
<g id="edge4" class="edge">
<title>PreventDoubleSubmit&#45;&gt;ArticleCreateModule</title>
<path fill="none" stroke="#000000" d="M658,-187.0225C658,-204.3734 658,-228 658,-228 658,-228 503.7277,-228 503.7277,-228"/>
<polygon fill="#000000" stroke="#000000" points="503.7277,-224.5001 493.7277,-228 503.7276,-231.5001 503.7277,-224.5001"/>
</g>
<!-- ArticleCreateComponent  -->
<g id="node10" class="node">
<title>ArticleCreateComponent </title>
<polygon fill="#fb8072" stroke="#000000" points="506.2324,-317 345.7676,-317 345.7676,-281 506.2324,-281 506.2324,-317"/>
<text text-anchor="middle" x="426" y="-294.8" font-family="Times,serif" font-size="14.00" fill="#000000">ArticleCreateComponent </text>
</g>
<!-- ArticleCreateModule&#45;&gt;ArticleCreateComponent  -->
<g id="edge9" class="edge">
<title>ArticleCreateModule&#45;&gt;ArticleCreateComponent </title>
<path fill="none" stroke="#000000" stroke-dasharray="5,2" d="M426,-252.1061C426,-252.1061 426,-270.991 426,-270.991"/>
<polygon fill="#000000" stroke="#000000" points="422.5001,-270.9909 426,-280.991 429.5001,-270.991 422.5001,-270.9909"/>
</g>
<!-- ArticleService -->
<g id="node4" class="node">
<title>ArticleService</title>
<ellipse fill="#fdb462" stroke="#000000" cx="830" cy="-104" rx="66.6055" ry="18"/>
<text text-anchor="middle" x="830" y="-99.8" font-family="Times,serif" font-size="14.00" fill="#000000">ArticleService</text>
</g>
<!-- ArticleService&#45;&gt;ArticleCreateComponent -->
<g id="edge2" class="edge">
<title>ArticleService&#45;&gt;ArticleCreateComponent</title>
<path fill="none" stroke="#000000" d="M830,-122.1061C830,-122.1061 830,-140.991 830,-140.991"/>
<polygon fill="#000000" stroke="#000000" points="826.5001,-140.9909 830,-150.991 833.5001,-140.991 826.5001,-140.9909"/>
</g>
<!-- ImageService -->
<g id="node5" class="node">
<title>ImageService</title>
<ellipse fill="#fdb462" stroke="#000000" cx="681" cy="-104" rx="64.2417" ry="18"/>
<text text-anchor="middle" x="681" y="-99.8" font-family="Times,serif" font-size="14.00" fill="#000000">ImageService</text>
</g>
<!-- ImageService&#45;&gt;ArticleCreateComponent -->
<g id="edge3" class="edge">
<title>ImageService&#45;&gt;ArticleCreateComponent</title>
<path fill="none" stroke="#000000" d="M736.6677,-113.038C736.6677,-130.8982 736.6677,-169 736.6677,-169 736.6677,-169 737.6467,-169 737.6467,-169"/>
<polygon fill="#000000" stroke="#000000" points="736.4583,-172.5001 746.4583,-169 736.4582,-165.5001 736.4583,-172.5001"/>
</g>
<!-- CommonModule -->
<g id="node6" class="node">
<title>CommonModule</title>
<polygon fill="#8dd3c7" stroke="#000000" points="563.6681,-187 560.6681,-191 539.6681,-191 536.6681,-187 452.3319,-187 452.3319,-151 563.6681,-151 563.6681,-187"/>
<text text-anchor="middle" x="508" y="-164.8" font-family="Times,serif" font-size="14.00" fill="#000000">CommonModule</text>
</g>
<!-- CommonModule&#45;&gt;ArticleCreateModule -->
<g id="edge5" class="edge">
<title>CommonModule&#45;&gt;ArticleCreateModule</title>
<path fill="none" stroke="#000000" d="M472.8205,-187.1061C472.8205,-187.1061 472.8205,-205.991 472.8205,-205.991"/>
<polygon fill="#000000" stroke="#000000" points="469.3206,-205.9909 472.8205,-215.991 476.3206,-205.991 469.3206,-205.9909"/>
</g>
<!-- ArticleCreateRoutingModule -->
<g id="node7" class="node">
<title>ArticleCreateRoutingModule</title>
<polygon fill="#8dd3c7" stroke="#000000" points="434.0674,-187 431.0674,-191 410.0674,-191 407.0674,-187 253.9326,-187 253.9326,-151 434.0674,-151 434.0674,-187"/>
<text text-anchor="middle" x="344" y="-164.8" font-family="Times,serif" font-size="14.00" fill="#000000">ArticleCreateRoutingModule</text>
</g>
<!-- ArticleCreateRoutingModule&#45;&gt;ArticleCreateModule -->
<g id="edge6" class="edge">
<title>ArticleCreateRoutingModule&#45;&gt;ArticleCreateModule</title>
<path fill="none" stroke="#000000" d="M396.2795,-187.1061C396.2795,-187.1061 396.2795,-205.991 396.2795,-205.991"/>
<polygon fill="#000000" stroke="#000000" points="392.7795,-205.9909 396.2795,-215.991 399.7795,-205.991 392.7795,-205.9909"/>
</g>
<!-- FormsModule -->
<g id="node8" class="node">
<title>FormsModule</title>
<polygon fill="#8dd3c7" stroke="#000000" points="235.8288,-187 232.8288,-191 211.8288,-191 208.8288,-187 140.1712,-187 140.1712,-151 235.8288,-151 235.8288,-187"/>
<text text-anchor="middle" x="188" y="-164.8" font-family="Times,serif" font-size="14.00" fill="#000000">FormsModule</text>
</g>
<!-- FormsModule&#45;&gt;ArticleCreateModule -->
<g id="edge7" class="edge">
<title>FormsModule&#45;&gt;ArticleCreateModule</title>
<path fill="none" stroke="#000000" d="M188,-187.0225C188,-204.3734 188,-228 188,-228 188,-228 348.4354,-228 348.4354,-228"/>
<polygon fill="#000000" stroke="#000000" points="348.4354,-231.5001 358.4354,-228 348.4353,-224.5001 348.4354,-231.5001"/>
</g>
<!-- SharedModule -->
<g id="node9" class="node">
<title>SharedModule</title>
<polygon fill="#8dd3c7" stroke="#000000" points="122.4231,-187 119.4231,-191 98.4231,-191 95.4231,-187 23.5769,-187 23.5769,-151 122.4231,-151 122.4231,-187"/>
<text text-anchor="middle" x="73" y="-164.8" font-family="Times,serif" font-size="14.00" fill="#000000">SharedModule</text>
</g>
<!-- SharedModule&#45;&gt;ArticleCreateModule -->
<g id="edge8" class="edge">
<title>SharedModule&#45;&gt;ArticleCreateModule</title>
<path fill="none" stroke="#000000" d="M73,-187.2843C73,-208.3211 73,-240 73,-240 73,-240 348.3557,-240 348.3557,-240"/>
<polygon fill="#000000" stroke="#000000" points="348.3558,-243.5001 358.3557,-240 348.3557,-236.5001 348.3558,-243.5001"/>
</g>
</g>
</svg>
