<?xml version="1.0" encoding="UTF-8" standalone="no"?>
<!DOCTYPE svg PUBLIC "-//W3C//DTD SVG 1.1//EN"
 "http://www.w3.org/Graphics/SVG/1.1/DTD/svg11.dtd">
<!-- Generated by graphviz version 2.40.1 (20161225.0304)
 -->
<!-- Title: dependencies Pages: 1 -->
<svg width="1497pt" height="284pt"
 viewBox="0.00 0.00 1497.00 284.00" xmlns="http://www.w3.org/2000/svg" xmlns:xlink="http://www.w3.org/1999/xlink">
<g id="graph0" class="graph" transform="scale(1 1) rotate(0) translate(4 280)">
<title>dependencies</title>
<polygon fill="#ffffff" stroke="transparent" points="-4,4 -4,-280 1493,-280 1493,4 -4,4"/>
<text text-anchor="start" x="723.5091" y="-42.4" font-family="sans-serif" font-weight="bold" font-size="14.00" fill="#000000">Legend</text>
<polygon fill="#ffffb3" stroke="transparent" points="510.5,-10 510.5,-30 530.5,-30 530.5,-10 510.5,-10"/>
<text text-anchor="start" x="534.129" y="-15.4" font-family="sans-serif" font-size="14.00" fill="#000000"> &#160;Declarations</text>
<polygon fill="#8dd3c7" stroke="transparent" points="623.5,-10 623.5,-30 643.5,-30 643.5,-10 623.5,-10"/>
<text text-anchor="start" x="647.2251" y="-15.4" font-family="sans-serif" font-size="14.00" fill="#000000"> &#160;Module</text>
<polygon fill="#80b1d3" stroke="transparent" points="709.5,-10 709.5,-30 729.5,-30 729.5,-10 709.5,-10"/>
<text text-anchor="start" x="733.2812" y="-15.4" font-family="sans-serif" font-size="14.00" fill="#000000"> &#160;Bootstrap</text>
<polygon fill="#fdb462" stroke="transparent" points="806.5,-10 806.5,-30 826.5,-30 826.5,-10 806.5,-10"/>
<text text-anchor="start" x="830.1732" y="-15.4" font-family="sans-serif" font-size="14.00" fill="#000000"> &#160;Providers</text>
<polygon fill="#fb8072" stroke="transparent" points="902.5,-10 902.5,-30 922.5,-30 922.5,-10 902.5,-10"/>
<text text-anchor="start" x="926.2258" y="-15.4" font-family="sans-serif" font-size="14.00" fill="#000000"> &#160;Exports</text>
<g id="clust1" class="cluster">
<title>cluster_ImageUploadModule</title>
<polygon fill="none" stroke="#000000" stroke-dasharray="1,5" points="8,-70 8,-268 1481,-268 1481,-70 8,-70"/>
</g>
<g id="clust2" class="cluster">
<title>cluster_ImageUploadModule_declarations</title>
<polygon fill="none" stroke="#000000" points="681,-78 681,-130 1473,-130 1473,-78 681,-78"/>
</g>
<g id="clust8" class="cluster">
<title>cluster_ImageUploadModule_imports</title>
<polygon fill="none" stroke="#000000" points="16,-78 16,-130 673,-130 673,-78 16,-78"/>
</g>
<g id="clust9" class="cluster">
<title>cluster_ImageUploadModule_exports</title>
<polygon fill="none" stroke="#000000" points="589,-208 589,-260 767,-260 767,-208 589,-208"/>
</g>
<!-- PreviewAreaComponent -->
<g id="node1" class="node">
<title>PreviewAreaComponent</title>
<polygon fill="#ffffb3" stroke="#000000" points="1465.3989,-122 1310.6011,-122 1310.6011,-86 1465.3989,-86 1465.3989,-122"/>
<text text-anchor="middle" x="1388" y="-99.8" font-family="Times,serif" font-size="14.00" fill="#000000">PreviewAreaComponent</text>
</g>
<!-- ImageUploadModule -->
<g id="node6" class="node">
<title>ImageUploadModule</title>
<polygon fill="#8dd3c7" stroke="#000000" points="745.7422,-187 742.7422,-191 721.7422,-191 718.7422,-187 610.2578,-187 610.2578,-151 745.7422,-151 745.7422,-187"/>
<text text-anchor="middle" x="678" y="-164.8" font-family="Times,serif" font-size="14.00" fill="#000000">ImageUploadModule</text>
</g>
<!-- PreviewAreaComponent&#45;&gt;ImageUploadModule -->
<g id="edge1" class="edge">
<title>PreviewAreaComponent&#45;&gt;ImageUploadModule</title>
<path fill="none" stroke="#000000" d="M1388,-122.0109C1388,-144.4852 1388,-180 1388,-180 1388,-180 755.7562,-180 755.7562,-180"/>
<polygon fill="#000000" stroke="#000000" points="755.7562,-176.5001 745.7562,-180 755.7561,-183.5001 755.7562,-176.5001"/>
</g>
<!-- UploadAreaComponent -->
<g id="node2" class="node">
<title>UploadAreaComponent</title>
<polygon fill="#ffffb3" stroke="#000000" points="1292.7408,-122 1143.2592,-122 1143.2592,-86 1292.7408,-86 1292.7408,-122"/>
<text text-anchor="middle" x="1218" y="-99.8" font-family="Times,serif" font-size="14.00" fill="#000000">UploadAreaComponent</text>
</g>
<!-- UploadAreaComponent&#45;&gt;ImageUploadModule -->
<g id="edge2" class="edge">
<title>UploadAreaComponent&#45;&gt;ImageUploadModule</title>
<path fill="none" stroke="#000000" d="M1218,-122.1289C1218,-142.5724 1218,-173 1218,-173 1218,-173 755.8446,-173 755.8446,-173"/>
<polygon fill="#000000" stroke="#000000" points="755.8446,-169.5001 745.8446,-173 755.8446,-176.5001 755.8446,-169.5001"/>
</g>
<!-- ImageUploadComponent -->
<g id="node3" class="node">
<title>ImageUploadComponent</title>
<polygon fill="#ffffb3" stroke="#000000" points="1124.5253,-122 967.4747,-122 967.4747,-86 1124.5253,-86 1124.5253,-122"/>
<text text-anchor="middle" x="1046" y="-99.8" font-family="Times,serif" font-size="14.00" fill="#000000">ImageUploadComponent</text>
</g>
<!-- ImageUploadComponent&#45;&gt;ImageUploadModule -->
<g id="edge3" class="edge">
<title>ImageUploadComponent&#45;&gt;ImageUploadModule</title>
<path fill="none" stroke="#000000" d="M1046,-122.2667C1046,-140.5552 1046,-166 1046,-166 1046,-166 755.9257,-166 755.9257,-166"/>
<polygon fill="#000000" stroke="#000000" points="755.9258,-162.5001 745.9257,-166 755.9257,-169.5001 755.9258,-162.5001"/>
</g>
<!-- FileSelectDirective -->
<g id="node4" class="node">
<title>FileSelectDirective</title>
<polygon fill="#ffffb3" stroke="#000000" points="949.0688,-122 824.9312,-122 824.9312,-86 949.0688,-86 949.0688,-122"/>
<text text-anchor="middle" x="887" y="-99.8" font-family="Times,serif" font-size="14.00" fill="#000000">FileSelectDirective</text>
</g>
<!-- FileSelectDirective&#45;&gt;ImageUploadModule -->
<g id="edge4" class="edge">
<title>FileSelectDirective&#45;&gt;ImageUploadModule</title>
<path fill="none" stroke="#000000" d="M887,-122.0091C887,-138.0494 887,-159 887,-159 887,-159 755.8563,-159 755.8563,-159"/>
<polygon fill="#000000" stroke="#000000" points="755.8563,-155.5001 745.8563,-159 755.8563,-162.5001 755.8563,-155.5001"/>
</g>
<!-- FileDropDirective -->
<g id="node5" class="node">
<title>FileDropDirective</title>
<polygon fill="#ffffb3" stroke="#000000" points="807.129,-122 688.871,-122 688.871,-86 807.129,-86 807.129,-122"/>
<text text-anchor="middle" x="748" y="-99.8" font-family="Times,serif" font-size="14.00" fill="#000000">FileDropDirective</text>
</g>
<!-- FileDropDirective&#45;&gt;ImageUploadModule -->
<g id="edge5" class="edge">
<title>FileDropDirective&#45;&gt;ImageUploadModule</title>
<path fill="none" stroke="#000000" d="M717.2784,-122.1061C717.2784,-122.1061 717.2784,-140.991 717.2784,-140.991"/>
<polygon fill="#000000" stroke="#000000" points="713.7785,-140.9909 717.2784,-150.991 720.7785,-140.991 713.7785,-140.9909"/>
</g>
<!-- ImageUploadComponent  -->
<g id="node12" class="node">
<title>ImageUploadComponent </title>
<polygon fill="#fb8072" stroke="#000000" points="758.5246,-252 597.4754,-252 597.4754,-216 758.5246,-216 758.5246,-252"/>
<text text-anchor="middle" x="678" y="-229.8" font-family="Times,serif" font-size="14.00" fill="#000000">ImageUploadComponent </text>
</g>
<!-- ImageUploadModule&#45;&gt;ImageUploadComponent  -->
<g id="edge11" class="edge">
<title>ImageUploadModule&#45;&gt;ImageUploadComponent </title>
<path fill="none" stroke="#000000" stroke-dasharray="5,2" d="M678,-187.1061C678,-187.1061 678,-205.991 678,-205.991"/>
<polygon fill="#000000" stroke="#000000" points="674.5001,-205.9909 678,-215.991 681.5001,-205.991 674.5001,-205.9909"/>
</g>
<!-- CommonModule -->
<g id="node7" class="node">
<title>CommonModule</title>
<polygon fill="#8dd3c7" stroke="#000000" points="664.6681,-122 661.6681,-126 640.6681,-126 637.6681,-122 553.3319,-122 553.3319,-86 664.6681,-86 664.6681,-122"/>
<text text-anchor="middle" x="609" y="-99.8" font-family="Times,serif" font-size="14.00" fill="#000000">CommonModule</text>
</g>
<!-- CommonModule&#45;&gt;ImageUploadModule -->
<g id="edge6" class="edge">
<title>CommonModule&#45;&gt;ImageUploadModule</title>
<path fill="none" stroke="#000000" d="M637.4814,-122.1061C637.4814,-122.1061 637.4814,-140.991 637.4814,-140.991"/>
<polygon fill="#000000" stroke="#000000" points="633.9815,-140.9909 637.4814,-150.991 640.9815,-140.991 633.9815,-140.9909"/>
</g>
<!-- ImageUploadRoutingModule -->
<g id="node8" class="node">
<title>ImageUploadRoutingModule</title>
<polygon fill="#8dd3c7" stroke="#000000" points="535.3599,-122 532.3599,-126 511.3599,-126 508.3599,-122 354.6401,-122 354.6401,-86 535.3599,-86 535.3599,-122"/>
<text text-anchor="middle" x="445" y="-99.8" font-family="Times,serif" font-size="14.00" fill="#000000">ImageUploadRoutingModule</text>
</g>
<!-- ImageUploadRoutingModule&#45;&gt;ImageUploadModule -->
<g id="edge7" class="edge">
<title>ImageUploadRoutingModule&#45;&gt;ImageUploadModule</title>
<path fill="none" stroke="#000000" d="M445,-122.0091C445,-138.0494 445,-159 445,-159 445,-159 599.9804,-159 599.9804,-159"/>
<polygon fill="#000000" stroke="#000000" points="599.9804,-162.5001 609.9804,-159 599.9804,-155.5001 599.9804,-162.5001"/>
</g>
<!-- FormsModule -->
<g id="node9" class="node">
<title>FormsModule</title>
<polygon fill="#8dd3c7" stroke="#000000" points="336.8288,-122 333.8288,-126 312.8288,-126 309.8288,-122 241.1712,-122 241.1712,-86 336.8288,-86 336.8288,-122"/>
<text text-anchor="middle" x="289" y="-99.8" font-family="Times,serif" font-size="14.00" fill="#000000">FormsModule</text>
</g>
<!-- FormsModule&#45;&gt;ImageUploadModule -->
<g id="edge8" class="edge">
<title>FormsModule&#45;&gt;ImageUploadModule</title>
<path fill="none" stroke="#000000" d="M289,-122.2667C289,-140.5552 289,-166 289,-166 289,-166 600.2414,-166 600.2414,-166"/>
<polygon fill="#000000" stroke="#000000" points="600.2414,-169.5001 610.2414,-166 600.2413,-162.5001 600.2414,-169.5001"/>
</g>
<!-- NgbModule -->
<g id="node10" class="node">
<title>NgbModule</title>
<polygon fill="#8dd3c7" stroke="#000000" points="223.6571,-122 220.6571,-126 199.6571,-126 196.6571,-122 140.3429,-122 140.3429,-86 223.6571,-86 223.6571,-122"/>
<text text-anchor="middle" x="182" y="-99.8" font-family="Times,serif" font-size="14.00" fill="#000000">NgbModule</text>
</g>
<!-- NgbModule&#45;&gt;ImageUploadModule -->
<g id="edge9" class="edge">
<title>NgbModule&#45;&gt;ImageUploadModule</title>
<path fill="none" stroke="#000000" d="M182,-122.1289C182,-142.5724 182,-173 182,-173 182,-173 600.0733,-173 600.0733,-173"/>
<polygon fill="#000000" stroke="#000000" points="600.0734,-176.5001 610.0733,-173 600.0733,-169.5001 600.0734,-176.5001"/>
</g>
<!-- SharedModule -->
<g id="node11" class="node">
<title>SharedModule</title>
<polygon fill="#8dd3c7" stroke="#000000" points="122.4231,-122 119.4231,-126 98.4231,-126 95.4231,-122 23.5769,-122 23.5769,-86 122.4231,-86 122.4231,-122"/>
<text text-anchor="middle" x="73" y="-99.8" font-family="Times,serif" font-size="14.00" fill="#000000">SharedModule</text>
</g>
<!-- SharedModule&#45;&gt;ImageUploadModule -->
<g id="edge10" class="edge">
<title>SharedModule&#45;&gt;ImageUploadModule</title>
<path fill="none" stroke="#000000" d="M73,-122.0109C73,-144.4852 73,-180 73,-180 73,-180 600.0676,-180 600.0676,-180"/>
<polygon fill="#000000" stroke="#000000" points="600.0676,-183.5001 610.0676,-180 600.0676,-176.5001 600.0676,-183.5001"/>
</g>
</g>
</svg>
