<?xml version="1.0" encoding="UTF-8" standalone="no"?>
<!DOCTYPE svg PUBLIC "-//W3C//DTD SVG 1.1//EN"
 "http://www.w3.org/Graphics/SVG/1.1/DTD/svg11.dtd">
<!-- Generated by graphviz version 2.40.1 (20161225.0304)
 -->
<!-- Title: dependencies Pages: 1 -->
<svg width="1142pt" height="284pt"
 viewBox="0.00 0.00 1142.00 284.00" xmlns="http://www.w3.org/2000/svg" xmlns:xlink="http://www.w3.org/1999/xlink">
<g id="graph0" class="graph" transform="scale(1 1) rotate(0) translate(4 280)">
<title>dependencies</title>
<polygon fill="#ffffff" stroke="transparent" points="-4,4 -4,-280 1138,-280 1138,4 -4,4"/>
<text text-anchor="start" x="546.0091" y="-42.4" font-family="sans-serif" font-weight="bold" font-size="14.00" fill="#000000">Legend</text>
<polygon fill="#ffffb3" stroke="transparent" points="333,-10 333,-30 353,-30 353,-10 333,-10"/>
<text text-anchor="start" x="356.629" y="-15.4" font-family="sans-serif" font-size="14.00" fill="#000000"> &#160;Declarations</text>
<polygon fill="#8dd3c7" stroke="transparent" points="446,-10 446,-30 466,-30 466,-10 446,-10"/>
<text text-anchor="start" x="469.7251" y="-15.4" font-family="sans-serif" font-size="14.00" fill="#000000"> &#160;Module</text>
<polygon fill="#80b1d3" stroke="transparent" points="532,-10 532,-30 552,-30 552,-10 532,-10"/>
<text text-anchor="start" x="555.7812" y="-15.4" font-family="sans-serif" font-size="14.00" fill="#000000"> &#160;Bootstrap</text>
<polygon fill="#fdb462" stroke="transparent" points="629,-10 629,-30 649,-30 649,-10 629,-10"/>
<text text-anchor="start" x="652.6732" y="-15.4" font-family="sans-serif" font-size="14.00" fill="#000000"> &#160;Providers</text>
<polygon fill="#fb8072" stroke="transparent" points="725,-10 725,-30 745,-30 745,-10 725,-10"/>
<text text-anchor="start" x="748.7258" y="-15.4" font-family="sans-serif" font-size="14.00" fill="#000000"> &#160;Exports</text>
<g id="clust1" class="cluster">
<title>cluster_SharedModule</title>
<polygon fill="none" stroke="#000000" stroke-dasharray="1,5" points="8,-70 8,-268 1126,-268 1126,-70 8,-70"/>
</g>
<g id="clust2" class="cluster">
<title>cluster_SharedModule_declarations</title>
<polygon fill="none" stroke="#000000" points="391,-78 391,-130 1105,-130 1105,-78 391,-78"/>
</g>
<g id="clust8" class="cluster">
<title>cluster_SharedModule_imports</title>
<polygon fill="none" stroke="#000000" points="37,-78 37,-130 383,-130 383,-78 37,-78"/>
</g>
<g id="clust9" class="cluster">
<title>cluster_SharedModule_exports</title>
<polygon fill="none" stroke="#000000" points="16,-208 16,-260 1118,-260 1118,-208 16,-208"/>
</g>
<!-- NavbarComponent -->
<g id="node1" class="node">
<title>NavbarComponent</title>
<polygon fill="#ffffb3" stroke="#000000" points="1097.0297,-122 974.9703,-122 974.9703,-86 1097.0297,-86 1097.0297,-122"/>
<text text-anchor="middle" x="1036" y="-99.8" font-family="Times,serif" font-size="14.00" fill="#000000">NavbarComponent</text>
</g>
<!-- SharedModule -->
<g id="node6" class="node">
<title>SharedModule</title>
<polygon fill="#8dd3c7" stroke="#000000" points="515.4231,-187 512.4231,-191 491.4231,-191 488.4231,-187 416.5769,-187 416.5769,-151 515.4231,-151 515.4231,-187"/>
<text text-anchor="middle" x="466" y="-164.8" font-family="Times,serif" font-size="14.00" fill="#000000">SharedModule</text>
</g>
<!-- NavbarComponent&#45;&gt;SharedModule -->
<g id="edge1" class="edge">
<title>NavbarComponent&#45;&gt;SharedModule</title>
<path fill="none" stroke="#000000" d="M979.3606,-122.2222C979.3606,-140.8285 979.3606,-167 979.3606,-167 979.3606,-167 525.2232,-167 525.2232,-167"/>
<polygon fill="#000000" stroke="#000000" points="525.2232,-163.5001 515.2232,-167 525.2231,-170.5001 525.2232,-163.5001"/>
</g>
<!-- ToolbarComponent -->
<g id="node2" class="node">
<title>ToolbarComponent</title>
<polygon fill="#ffffb3" stroke="#000000" points="956.6513,-122 831.3487,-122 831.3487,-86 956.6513,-86 956.6513,-122"/>
<text text-anchor="middle" x="894" y="-99.8" font-family="Times,serif" font-size="14.00" fill="#000000">ToolbarComponent</text>
</g>
<!-- ToolbarComponent&#45;&gt;SharedModule -->
<g id="edge2" class="edge">
<title>ToolbarComponent&#45;&gt;SharedModule</title>
<path fill="none" stroke="#000000" d="M916.6918,-122.0225C916.6918,-139.3734 916.6918,-163 916.6918,-163 916.6918,-163 525.5211,-163 525.5211,-163"/>
<polygon fill="#000000" stroke="#000000" points="525.5212,-159.5001 515.5211,-163 525.5211,-166.5001 525.5212,-159.5001"/>
</g>
<!-- ArticleFormComponent -->
<g id="node3" class="node">
<title>ArticleFormComponent</title>
<polygon fill="#ffffb3" stroke="#000000" points="813.0351,-122 662.9649,-122 662.9649,-86 813.0351,-86 813.0351,-122"/>
<text text-anchor="middle" x="738" y="-99.8" font-family="Times,serif" font-size="14.00" fill="#000000">ArticleFormComponent</text>
</g>
<!-- ArticleFormComponent&#45;&gt;SharedModule -->
<g id="edge3" class="edge">
<title>ArticleFormComponent&#45;&gt;SharedModule</title>
<path fill="none" stroke="#000000" d="M763.5057,-122.0091C763.5057,-138.0494 763.5057,-159 763.5057,-159 763.5057,-159 525.461,-159 525.461,-159"/>
<polygon fill="#000000" stroke="#000000" points="525.461,-155.5001 515.461,-159 525.461,-162.5001 525.461,-155.5001"/>
</g>
<!-- AlertComponent -->
<g id="node4" class="node">
<title>AlertComponent</title>
<polygon fill="#ffffb3" stroke="#000000" points="645.0954,-122 534.9046,-122 534.9046,-86 645.0954,-86 645.0954,-122"/>
<text text-anchor="middle" x="590" y="-99.8" font-family="Times,serif" font-size="14.00" fill="#000000">AlertComponent</text>
</g>
<!-- AlertComponent&#45;&gt;SharedModule -->
<g id="edge4" class="edge">
<title>AlertComponent&#45;&gt;SharedModule</title>
<path fill="none" stroke="#000000" d="M571.6508,-122.1243C571.6508,-136.7832 571.6508,-155 571.6508,-155 571.6508,-155 525.4227,-155 525.4227,-155"/>
<polygon fill="#000000" stroke="#000000" points="525.4228,-151.5001 515.4227,-155 525.4227,-158.5001 525.4228,-151.5001"/>
</g>
<!-- FooterComponent -->
<g id="node5" class="node">
<title>FooterComponent</title>
<polygon fill="#ffffb3" stroke="#000000" points="516.8809,-122 399.1191,-122 399.1191,-86 516.8809,-86 516.8809,-122"/>
<text text-anchor="middle" x="458" y="-99.8" font-family="Times,serif" font-size="14.00" fill="#000000">FooterComponent</text>
</g>
<!-- FooterComponent&#45;&gt;SharedModule -->
<g id="edge5" class="edge">
<title>FooterComponent&#45;&gt;SharedModule</title>
<path fill="none" stroke="#000000" d="M466,-122.1061C466,-122.1061 466,-140.991 466,-140.991"/>
<polygon fill="#000000" stroke="#000000" points="462.5001,-140.9909 466,-150.991 469.5001,-140.991 462.5001,-140.9909"/>
</g>
<!-- NavbarComponent  -->
<g id="node10" class="node">
<title>NavbarComponent </title>
<polygon fill="#fb8072" stroke="#000000" points="1110.0288,-252 983.9712,-252 983.9712,-216 1110.0288,-216 1110.0288,-252"/>
<text text-anchor="middle" x="1047" y="-229.8" font-family="Times,serif" font-size="14.00" fill="#000000">NavbarComponent </text>
</g>
<!-- SharedModule&#45;&gt;NavbarComponent  -->
<g id="edge9" class="edge">
<title>SharedModule&#45;&gt;NavbarComponent </title>
<path fill="none" stroke="#000000" stroke-dasharray="5,2" d="M515.4895,-171C654.8727,-171 1040.625,-171 1040.625,-171 1040.625,-171 1040.625,-205.7778 1040.625,-205.7778"/>
<polygon fill="#000000" stroke="#000000" points="1037.1251,-205.7778 1040.625,-215.7778 1044.1251,-205.7778 1037.1251,-205.7778"/>
</g>
<!-- ToolbarComponent  -->
<g id="node11" class="node">
<title>ToolbarComponent </title>
<polygon fill="#fb8072" stroke="#000000" points="965.6509,-252 836.3491,-252 836.3491,-216 965.6509,-216 965.6509,-252"/>
<text text-anchor="middle" x="901" y="-229.8" font-family="Times,serif" font-size="14.00" fill="#000000">ToolbarComponent </text>
</g>
<!-- SharedModule&#45;&gt;ToolbarComponent  -->
<g id="edge10" class="edge">
<title>SharedModule&#45;&gt;ToolbarComponent </title>
<path fill="none" stroke="#000000" stroke-dasharray="5,2" d="M515.5229,-175C624.7189,-175 876.5582,-175 876.5582,-175 876.5582,-175 876.5582,-205.9775 876.5582,-205.9775"/>
<polygon fill="#000000" stroke="#000000" points="873.0583,-205.9774 876.5582,-215.9775 880.0583,-205.9775 873.0583,-205.9774"/>
</g>
<!-- ArticleFormComponent  -->
<g id="node12" class="node">
<title>ArticleFormComponent </title>
<polygon fill="#fb8072" stroke="#000000" points="818.0344,-252 663.9656,-252 663.9656,-216 818.0344,-216 818.0344,-252"/>
<text text-anchor="middle" x="741" y="-229.8" font-family="Times,serif" font-size="14.00" fill="#000000">ArticleFormComponent </text>
</g>
<!-- SharedModule&#45;&gt;ArticleFormComponent  -->
<g id="edge11" class="edge">
<title>SharedModule&#45;&gt;ArticleFormComponent </title>
<path fill="none" stroke="#000000" stroke-dasharray="5,2" d="M515.2425,-179C587.4922,-179 713.7443,-179 713.7443,-179 713.7443,-179 713.7443,-205.9909 713.7443,-205.9909"/>
<polygon fill="#000000" stroke="#000000" points="710.2444,-205.9909 713.7443,-215.9909 717.2444,-205.991 710.2444,-205.9909"/>
</g>
<!-- AlertComponent  -->
<g id="node13" class="node">
<title>AlertComponent </title>
<polygon fill="#fb8072" stroke="#000000" points="645.5961,-252 532.4039,-252 532.4039,-216 645.5961,-216 645.5961,-252"/>
<text text-anchor="middle" x="589" y="-229.8" font-family="Times,serif" font-size="14.00" fill="#000000">AlertComponent </text>
</g>
<!-- SharedModule&#45;&gt;AlertComponent  -->
<g id="edge12" class="edge">
<title>SharedModule&#45;&gt;AlertComponent </title>
<path fill="none" stroke="#000000" stroke-dasharray="5,2" d="M515.3874,-183C556.5012,-183 608.3492,-183 608.3492,-183 608.3492,-183 608.3492,-205.8757 608.3492,-205.8757"/>
<polygon fill="#000000" stroke="#000000" points="604.8493,-205.8757 608.3492,-215.8757 611.8493,-205.8757 604.8493,-205.8757"/>
</g>
<!-- FooterComponent  -->
<g id="node14" class="node">
<title>FooterComponent </title>
<polygon fill="#fb8072" stroke="#000000" points="514.8814,-252 393.1186,-252 393.1186,-216 514.8814,-216 514.8814,-252"/>
<text text-anchor="middle" x="454" y="-229.8" font-family="Times,serif" font-size="14.00" fill="#000000">FooterComponent </text>
</g>
<!-- SharedModule&#45;&gt;FooterComponent  -->
<g id="edge13" class="edge">
<title>SharedModule&#45;&gt;FooterComponent </title>
<path fill="none" stroke="#000000" stroke-dasharray="5,2" d="M465.7397,-187.1061C465.7397,-187.1061 465.7397,-205.991 465.7397,-205.991"/>
<polygon fill="#000000" stroke="#000000" points="462.2397,-205.9909 465.7397,-215.991 469.2397,-205.991 462.2397,-205.9909"/>
</g>
<!-- CommonModule  -->
<g id="node15" class="node">
<title>CommonModule </title>
<polygon fill="#fb8072" stroke="#000000" points="375.6677,-252 260.3323,-252 260.3323,-216 375.6677,-216 375.6677,-252"/>
<text text-anchor="middle" x="318" y="-229.8" font-family="Times,serif" font-size="14.00" fill="#000000">CommonModule </text>
</g>
<!-- SharedModule&#45;&gt;CommonModule  -->
<g id="edge14" class="edge">
<title>SharedModule&#45;&gt;CommonModule </title>
<path fill="none" stroke="#000000" stroke-dasharray="5,2" d="M416.7596,-182C367.9419,-182 300.3887,-182 300.3887,-182 300.3887,-182 300.3887,-205.8129 300.3887,-205.8129"/>
<polygon fill="#000000" stroke="#000000" points="296.8888,-205.8129 300.3887,-215.8129 303.8888,-205.813 296.8888,-205.8129"/>
</g>
<!-- FormsModule  -->
<g id="node16" class="node">
<title>FormsModule </title>
<polygon fill="#fb8072" stroke="#000000" points="242.3283,-252 143.6717,-252 143.6717,-216 242.3283,-216 242.3283,-252"/>
<text text-anchor="middle" x="193" y="-229.8" font-family="Times,serif" font-size="14.00" fill="#000000">FormsModule </text>
</g>
<!-- SharedModule&#45;&gt;FormsModule  -->
<g id="edge15" class="edge">
<title>SharedModule&#45;&gt;FormsModule </title>
<path fill="none" stroke="#000000" stroke-dasharray="5,2" d="M416.6493,-177C334.5691,-177 178.9206,-177 178.9206,-177 178.9206,-177 178.9206,-205.9648 178.9206,-205.9648"/>
<polygon fill="#000000" stroke="#000000" points="175.4207,-205.9648 178.9206,-215.9648 182.4207,-205.9649 175.4207,-205.9648"/>
</g>
<!-- RouterModule  -->
<g id="node17" class="node">
<title>RouterModule </title>
<polygon fill="#fb8072" stroke="#000000" points="125.6523,-252 24.3477,-252 24.3477,-216 125.6523,-216 125.6523,-252"/>
<text text-anchor="middle" x="75" y="-229.8" font-family="Times,serif" font-size="14.00" fill="#000000">RouterModule </text>
</g>
<!-- SharedModule&#45;&gt;RouterModule  -->
<g id="edge16" class="edge">
<title>SharedModule&#45;&gt;RouterModule </title>
<path fill="none" stroke="#000000" stroke-dasharray="5,2" d="M416.4952,-172C310.6678,-172 71.9732,-172 71.9732,-172 71.9732,-172 71.9732,-205.7333 71.9732,-205.7333"/>
<polygon fill="#000000" stroke="#000000" points="68.4733,-205.7333 71.9732,-215.7333 75.4733,-205.7333 68.4733,-205.7333"/>
</g>
<!-- CommonModule -->
<g id="node7" class="node">
<title>CommonModule</title>
<polygon fill="#8dd3c7" stroke="#000000" points="374.6681,-122 371.6681,-126 350.6681,-126 347.6681,-122 263.3319,-122 263.3319,-86 374.6681,-86 374.6681,-122"/>
<text text-anchor="middle" x="319" y="-99.8" font-family="Times,serif" font-size="14.00" fill="#000000">CommonModule</text>
</g>
<!-- CommonModule&#45;&gt;SharedModule -->
<g id="edge6" class="edge">
<title>CommonModule&#45;&gt;SharedModule</title>
<path fill="none" stroke="#000000" d="M337.6113,-122.2396C337.6113,-137.5706 337.6113,-157 337.6113,-157 337.6113,-157 406.7287,-157 406.7287,-157"/>
<polygon fill="#000000" stroke="#000000" points="406.7288,-160.5001 416.7287,-157 406.7287,-153.5001 406.7288,-160.5001"/>
</g>
<!-- RouterModule -->
<g id="node8" class="node">
<title>RouterModule</title>
<polygon fill="#8dd3c7" stroke="#000000" points="244.6528,-122 241.6528,-126 220.6528,-126 217.6528,-122 147.3472,-122 147.3472,-86 244.6528,-86 244.6528,-122"/>
<text text-anchor="middle" x="196" y="-99.8" font-family="Times,serif" font-size="14.00" fill="#000000">RouterModule</text>
</g>
<!-- RouterModule&#45;&gt;SharedModule -->
<g id="edge7" class="edge">
<title>RouterModule&#45;&gt;SharedModule</title>
<path fill="none" stroke="#000000" d="M210.6674,-122.0336C210.6674,-139.0597 210.6674,-162 210.6674,-162 210.6674,-162 406.7693,-162 406.7693,-162"/>
<polygon fill="#000000" stroke="#000000" points="406.7693,-165.5001 416.7693,-162 406.7693,-158.5001 406.7693,-165.5001"/>
</g>
<!-- NgbModule -->
<g id="node9" class="node">
<title>NgbModule</title>
<polygon fill="#8dd3c7" stroke="#000000" points="128.6571,-122 125.6571,-126 104.6571,-126 101.6571,-122 45.3429,-122 45.3429,-86 128.6571,-86 128.6571,-122"/>
<text text-anchor="middle" x="87" y="-99.8" font-family="Times,serif" font-size="14.00" fill="#000000">NgbModule</text>
</g>
<!-- NgbModule&#45;&gt;SharedModule -->
<g id="edge8" class="edge">
<title>NgbModule&#45;&gt;SharedModule</title>
<path fill="none" stroke="#000000" d="M98.7747,-122.2222C98.7747,-140.8285 98.7747,-167 98.7747,-167 98.7747,-167 406.4744,-167 406.4744,-167"/>
<polygon fill="#000000" stroke="#000000" points="406.4744,-170.5001 416.4744,-167 406.4743,-163.5001 406.4744,-170.5001"/>
</g>
</g>
</svg>
