<?xml version="1.0" encoding="UTF-8" standalone="no"?>
<!DOCTYPE svg PUBLIC "-//W3C//DTD SVG 1.1//EN"
 "http://www.w3.org/Graphics/SVG/1.1/DTD/svg11.dtd">
<!-- Generated by graphviz version 2.40.1 (20161225.0304)
 -->
<!-- Title: dependencies Pages: 1 -->
<svg width="794pt" height="284pt"
 viewBox="0.00 0.00 794.00 284.00" xmlns="http://www.w3.org/2000/svg" xmlns:xlink="http://www.w3.org/1999/xlink">
<g id="graph0" class="graph" transform="scale(1 1) rotate(0) translate(4 280)">
<title>dependencies</title>
<polygon fill="#ffffff" stroke="transparent" points="-4,4 -4,-280 790,-280 790,4 -4,4"/>
<text text-anchor="start" x="372.0091" y="-42.4" font-family="sans-serif" font-weight="bold" font-size="14.00" fill="#000000">Legend</text>
<polygon fill="#ffffb3" stroke="transparent" points="159,-10 159,-30 179,-30 179,-10 159,-10"/>
<text text-anchor="start" x="182.629" y="-15.4" font-family="sans-serif" font-size="14.00" fill="#000000"> &#160;Declarations</text>
<polygon fill="#8dd3c7" stroke="transparent" points="272,-10 272,-30 292,-30 292,-10 272,-10"/>
<text text-anchor="start" x="295.7251" y="-15.4" font-family="sans-serif" font-size="14.00" fill="#000000"> &#160;Module</text>
<polygon fill="#80b1d3" stroke="transparent" points="358,-10 358,-30 378,-30 378,-10 358,-10"/>
<text text-anchor="start" x="381.7812" y="-15.4" font-family="sans-serif" font-size="14.00" fill="#000000"> &#160;Bootstrap</text>
<polygon fill="#fdb462" stroke="transparent" points="455,-10 455,-30 475,-30 475,-10 455,-10"/>
<text text-anchor="start" x="478.6732" y="-15.4" font-family="sans-serif" font-size="14.00" fill="#000000"> &#160;Providers</text>
<polygon fill="#fb8072" stroke="transparent" points="551,-10 551,-30 571,-30 571,-10 551,-10"/>
<text text-anchor="start" x="574.7258" y="-15.4" font-family="sans-serif" font-size="14.00" fill="#000000"> &#160;Exports</text>
<g id="clust1" class="cluster">
<title>cluster_LoginModule</title>
<polygon fill="none" stroke="#000000" stroke-dasharray="1,5" points="8,-70 8,-268 778,-268 778,-70 8,-70"/>
</g>
<g id="clust2" class="cluster">
<title>cluster_LoginModule_declarations</title>
<polygon fill="none" stroke="#000000" points="640,-78 640,-130 770,-130 770,-78 640,-78"/>
</g>
<g id="clust4" class="cluster">
<title>cluster_LoginModule_imports</title>
<polygon fill="none" stroke="#000000" points="234,-78 234,-130 632,-130 632,-78 234,-78"/>
</g>
<g id="clust5" class="cluster">
<title>cluster_LoginModule_exports</title>
<polygon fill="none" stroke="#000000" points="358,-208 358,-260 492,-260 492,-208 358,-208"/>
</g>
<g id="clust7" class="cluster">
<title>cluster_LoginModule_providers</title>
<polygon fill="none" stroke="#000000" points="16,-78 16,-130 226,-130 226,-78 16,-78"/>
</g>
<!-- LoginComponent -->
<g id="node1" class="node">
<title>LoginComponent</title>
<polygon fill="#ffffb3" stroke="#000000" points="762.2758,-122 647.7242,-122 647.7242,-86 762.2758,-86 762.2758,-122"/>
<text text-anchor="middle" x="705" y="-99.8" font-family="Times,serif" font-size="14.00" fill="#000000">LoginComponent</text>
</g>
<!-- LoginModule -->
<g id="node2" class="node">
<title>LoginModule</title>
<polygon fill="#8dd3c7" stroke="#000000" points="471.493,-187 468.493,-191 447.493,-191 444.493,-187 378.507,-187 378.507,-151 471.493,-151 471.493,-187"/>
<text text-anchor="middle" x="425" y="-164.8" font-family="Times,serif" font-size="14.00" fill="#000000">LoginModule</text>
</g>
<!-- LoginComponent&#45;&gt;LoginModule -->
<g id="edge1" class="edge">
<title>LoginComponent&#45;&gt;LoginModule</title>
<path fill="none" stroke="#000000" d="M705,-122.2843C705,-143.3211 705,-175 705,-175 705,-175 481.5506,-175 481.5506,-175"/>
<polygon fill="#000000" stroke="#000000" points="481.5507,-171.5001 471.5506,-175 481.5506,-178.5001 481.5507,-171.5001"/>
</g>
<!-- LoginComponent  -->
<g id="node6" class="node">
<title>LoginComponent </title>
<polygon fill="#fb8072" stroke="#000000" points="484.2759,-252 365.7241,-252 365.7241,-216 484.2759,-216 484.2759,-252"/>
<text text-anchor="middle" x="425" y="-229.8" font-family="Times,serif" font-size="14.00" fill="#000000">LoginComponent </text>
</g>
<!-- LoginModule&#45;&gt;LoginComponent  -->
<g id="edge5" class="edge">
<title>LoginModule&#45;&gt;LoginComponent </title>
<path fill="none" stroke="#000000" stroke-dasharray="5,2" d="M425,-187.1061C425,-187.1061 425,-205.991 425,-205.991"/>
<polygon fill="#000000" stroke="#000000" points="421.5001,-205.9909 425,-215.991 428.5001,-205.991 421.5001,-205.9909"/>
</g>
<!-- CommonModule -->
<g id="node3" class="node">
<title>CommonModule</title>
<polygon fill="#8dd3c7" stroke="#000000" points="623.6681,-122 620.6681,-126 599.6681,-126 596.6681,-122 512.3319,-122 512.3319,-86 623.6681,-86 623.6681,-122"/>
<text text-anchor="middle" x="568" y="-99.8" font-family="Times,serif" font-size="14.00" fill="#000000">CommonModule</text>
</g>
<!-- CommonModule&#45;&gt;LoginModule -->
<g id="edge2" class="edge">
<title>CommonModule&#45;&gt;LoginModule</title>
<path fill="none" stroke="#000000" d="M568,-122.0225C568,-139.3734 568,-163 568,-163 568,-163 481.8235,-163 481.8235,-163"/>
<polygon fill="#000000" stroke="#000000" points="481.8236,-159.5001 471.8235,-163 481.8235,-166.5001 481.8236,-159.5001"/>
</g>
<!-- LoginRoutingModule -->
<g id="node4" class="node">
<title>LoginRoutingModule</title>
<polygon fill="#8dd3c7" stroke="#000000" points="494.1108,-122 491.1108,-126 470.1108,-126 467.1108,-122 355.8892,-122 355.8892,-86 494.1108,-86 494.1108,-122"/>
<text text-anchor="middle" x="425" y="-99.8" font-family="Times,serif" font-size="14.00" fill="#000000">LoginRoutingModule</text>
</g>
<!-- LoginRoutingModule&#45;&gt;LoginModule -->
<g id="edge3" class="edge">
<title>LoginRoutingModule&#45;&gt;LoginModule</title>
<path fill="none" stroke="#000000" d="M425,-122.1061C425,-122.1061 425,-140.991 425,-140.991"/>
<polygon fill="#000000" stroke="#000000" points="421.5001,-140.9909 425,-150.991 428.5001,-140.991 421.5001,-140.9909"/>
</g>
<!-- FormsModule -->
<g id="node5" class="node">
<title>FormsModule</title>
<polygon fill="#8dd3c7" stroke="#000000" points="337.8288,-122 334.8288,-126 313.8288,-126 310.8288,-122 242.1712,-122 242.1712,-86 337.8288,-86 337.8288,-122"/>
<text text-anchor="middle" x="290" y="-99.8" font-family="Times,serif" font-size="14.00" fill="#000000">FormsModule</text>
</g>
<!-- FormsModule&#45;&gt;LoginModule -->
<g id="edge4" class="edge">
<title>FormsModule&#45;&gt;LoginModule</title>
<path fill="none" stroke="#000000" d="M290,-122.0225C290,-139.3734 290,-163 290,-163 290,-163 368.1624,-163 368.1624,-163"/>
<polygon fill="#000000" stroke="#000000" points="368.1625,-166.5001 378.1624,-163 368.1624,-159.5001 368.1625,-166.5001"/>
</g>
<!-- AuthenticationService -->
<g id="node7" class="node">
<title>AuthenticationService</title>
<ellipse fill="#fdb462" stroke="#000000" cx="121" cy="-104" rx="97.2683" ry="18"/>
<text text-anchor="middle" x="121" y="-99.8" font-family="Times,serif" font-size="14.00" fill="#000000">AuthenticationService</text>
</g>
<!-- AuthenticationService&#45;&gt;LoginModule -->
<g id="edge6" class="edge">
<title>AuthenticationService&#45;&gt;LoginModule</title>
<path fill="none" stroke="#000000" d="M121,-122.2843C121,-143.3211 121,-175 121,-175 121,-175 368.498,-175 368.498,-175"/>
<polygon fill="#000000" stroke="#000000" points="368.4981,-178.5001 378.498,-175 368.498,-171.5001 368.4981,-178.5001"/>
</g>
</g>
</svg>
