<?xml version="1.0" encoding="UTF-8" standalone="no"?>
<!DOCTYPE svg PUBLIC "-//W3C//DTD SVG 1.1//EN"
 "http://www.w3.org/Graphics/SVG/1.1/DTD/svg11.dtd">
<!-- Generated by graphviz version 2.40.1 (20161225.0304)
 -->
<!-- Title: dependencies Pages: 1 -->
<svg width="2816pt" height="349pt"
 viewBox="0.00 0.00 2816.00 349.00" xmlns="http://www.w3.org/2000/svg" xmlns:xlink="http://www.w3.org/1999/xlink">
<g id="graph0" class="graph" transform="scale(1 1) rotate(0) translate(4 345)">
<title>dependencies</title>
<polygon fill="#ffffff" stroke="transparent" points="-4,4 -4,-345 2812,-345 2812,4 -4,4"/>
<text text-anchor="start" x="1383.0091" y="-42.4" font-family="sans-serif" font-weight="bold" font-size="14.00" fill="#000000">Legend</text>
<polygon fill="#ffffb3" stroke="transparent" points="1170,-10 1170,-30 1190,-30 1190,-10 1170,-10"/>
<text text-anchor="start" x="1193.629" y="-15.4" font-family="sans-serif" font-size="14.00" fill="#000000"> &#160;Declarations</text>
<polygon fill="#8dd3c7" stroke="transparent" points="1283,-10 1283,-30 1303,-30 1303,-10 1283,-10"/>
<text text-anchor="start" x="1306.7251" y="-15.4" font-family="sans-serif" font-size="14.00" fill="#000000"> &#160;Module</text>
<polygon fill="#80b1d3" stroke="transparent" points="1369,-10 1369,-30 1389,-30 1389,-10 1369,-10"/>
<text text-anchor="start" x="1392.7812" y="-15.4" font-family="sans-serif" font-size="14.00" fill="#000000"> &#160;Bootstrap</text>
<polygon fill="#fdb462" stroke="transparent" points="1466,-10 1466,-30 1486,-30 1486,-10 1466,-10"/>
<text text-anchor="start" x="1489.6732" y="-15.4" font-family="sans-serif" font-size="14.00" fill="#000000"> &#160;Providers</text>
<polygon fill="#fb8072" stroke="transparent" points="1562,-10 1562,-30 1582,-30 1582,-10 1562,-10"/>
<text text-anchor="start" x="1585.7258" y="-15.4" font-family="sans-serif" font-size="14.00" fill="#000000"> &#160;Exports</text>
<g id="clust1" class="cluster">
<title>cluster_AppModule</title>
<polygon fill="none" stroke="#000000" stroke-dasharray="1,5" points="8,-70 8,-333 2800,-333 2800,-70 8,-70"/>
</g>
<g id="clust2" class="cluster">
<title>cluster_AppModule_declarations</title>
<polygon fill="none" stroke="#000000" points="2514,-143 2514,-195 2792,-195 2792,-143 2514,-143"/>
</g>
<g id="clust3" class="cluster">
<title>cluster_AppModule_AppComponent_providers</title>
<polygon fill="none" stroke="#000000" points="2496,-78 2496,-130 2792,-130 2792,-78 2496,-78"/>
</g>
<g id="clust5" class="cluster">
<title>cluster_AppModule_imports</title>
<polygon fill="none" stroke="#000000" points="486,-143 486,-195 2506,-195 2506,-143 486,-143"/>
</g>
<g id="clust7" class="cluster">
<title>cluster_AppModule_bootstrap</title>
<polygon fill="none" stroke="#000000" points="1408,-273 1408,-325 1532,-325 1532,-273 1408,-273"/>
</g>
<g id="clust8" class="cluster">
<title>cluster_AppModule_providers</title>
<polygon fill="none" stroke="#000000" points="16,-143 16,-195 478,-195 478,-143 16,-143"/>
</g>
<!-- AppComponent -->
<g id="node1" class="node">
<title>AppComponent</title>
<polygon fill="#ffffb3" stroke="#000000" points="2783.9399,-187 2678.0601,-187 2678.0601,-151 2783.9399,-151 2783.9399,-187"/>
<text text-anchor="middle" x="2731" y="-164.8" font-family="Times,serif" font-size="14.00" fill="#000000">AppComponent</text>
</g>
<!-- AppModule -->
<g id="node3" class="node">
<title>AppModule</title>
<polygon fill="#8dd3c7" stroke="#000000" points="1511.6571,-252 1508.6571,-256 1487.6571,-256 1484.6571,-252 1428.3429,-252 1428.3429,-216 1511.6571,-216 1511.6571,-252"/>
<text text-anchor="middle" x="1470" y="-229.8" font-family="Times,serif" font-size="14.00" fill="#000000">AppModule</text>
</g>
<!-- AppComponent&#45;&gt;AppModule -->
<g id="edge1" class="edge">
<title>AppComponent&#45;&gt;AppModule</title>
<path fill="none" stroke="#000000" d="M2731,-187.1532C2731,-210.7566 2731,-249 2731,-249 2731,-249 1521.9557,-249 1521.9557,-249"/>
<polygon fill="#000000" stroke="#000000" points="1521.9558,-245.5001 1511.9557,-249 1521.9557,-252.5001 1521.9558,-245.5001"/>
</g>
<!-- NotFoundComponent -->
<g id="node2" class="node">
<title>NotFoundComponent</title>
<polygon fill="#ffffb3" stroke="#000000" points="2660.1122,-187 2521.8878,-187 2521.8878,-151 2660.1122,-151 2660.1122,-187"/>
<text text-anchor="middle" x="2591" y="-164.8" font-family="Times,serif" font-size="14.00" fill="#000000">NotFoundComponent</text>
</g>
<!-- NotFoundComponent&#45;&gt;AppModule -->
<g id="edge4" class="edge">
<title>NotFoundComponent&#45;&gt;AppModule</title>
<path fill="none" stroke="#000000" d="M2591,-187.0109C2591,-209.4852 2591,-245 2591,-245 2591,-245 1521.8986,-245 1521.8986,-245"/>
<polygon fill="#000000" stroke="#000000" points="1521.8986,-241.5001 1511.8986,-245 1521.8986,-248.5001 1521.8986,-241.5001"/>
</g>
<!-- AppComponent  -->
<g id="node21" class="node">
<title>AppComponent </title>
<polygon fill="#80b1d3" stroke="#000000" points="1524.439,-317 1415.561,-317 1415.561,-281 1524.439,-281 1524.439,-317"/>
<text text-anchor="middle" x="1470" y="-294.8" font-family="Times,serif" font-size="14.00" fill="#000000">AppComponent </text>
</g>
<!-- AppModule&#45;&gt;AppComponent  -->
<g id="edge20" class="edge">
<title>AppModule&#45;&gt;AppComponent </title>
<path fill="none" stroke="#000000" stroke-dasharray="1,5" d="M1470,-252.1061C1470,-252.1061 1470,-270.991 1470,-270.991"/>
<polygon fill="#000000" stroke="#000000" points="1466.5001,-270.9909 1470,-280.991 1473.5001,-270.991 1466.5001,-270.9909"/>
</g>
<!-- ArticleService -->
<g id="node4" class="node">
<title>ArticleService</title>
<ellipse fill="#fdb462" stroke="#000000" cx="2717" cy="-104" rx="66.6055" ry="18"/>
<text text-anchor="middle" x="2717" y="-99.8" font-family="Times,serif" font-size="14.00" fill="#000000">ArticleService</text>
</g>
<!-- ArticleService&#45;&gt;AppComponent -->
<g id="edge2" class="edge">
<title>ArticleService&#45;&gt;AppComponent</title>
<path fill="none" stroke="#000000" d="M2748.5732,-120.0674C2748.5732,-120.0674 2748.5732,-140.8237 2748.5732,-140.8237"/>
<polygon fill="#000000" stroke="#000000" points="2745.0733,-140.8236 2748.5732,-150.8237 2752.0733,-140.8237 2745.0733,-140.8236"/>
</g>
<!-- ImageService -->
<g id="node5" class="node">
<title>ImageService</title>
<ellipse fill="#fdb462" stroke="#000000" cx="2568" cy="-104" rx="64.2417" ry="18"/>
<text text-anchor="middle" x="2568" y="-99.8" font-family="Times,serif" font-size="14.00" fill="#000000">ImageService</text>
</g>
<!-- ImageService&#45;&gt;AppComponent -->
<g id="edge3" class="edge">
<title>ImageService&#45;&gt;AppComponent</title>
<path fill="none" stroke="#000000" d="M2577.0323,-122.0449C2577.0323,-129.749 2577.0323,-137 2577.0323,-137 2577.0323,-137 2713.4268,-137 2713.4268,-137 2713.4268,-137 2713.4268,-140.7566 2713.4268,-140.7566"/>
<polygon fill="#000000" stroke="#000000" points="2709.9269,-140.7566 2713.4268,-150.7566 2716.9269,-140.7566 2709.9269,-140.7566"/>
</g>
<!-- BrowserModule -->
<g id="node6" class="node">
<title>BrowserModule</title>
<polygon fill="#8dd3c7" stroke="#000000" points="2498.4734,-187 2495.4734,-191 2474.4734,-191 2471.4734,-187 2391.5266,-187 2391.5266,-151 2498.4734,-151 2498.4734,-187"/>
<text text-anchor="middle" x="2445" y="-164.8" font-family="Times,serif" font-size="14.00" fill="#000000">BrowserModule</text>
</g>
<!-- BrowserModule&#45;&gt;AppModule -->
<g id="edge5" class="edge">
<title>BrowserModule&#45;&gt;AppModule</title>
<path fill="none" stroke="#000000" d="M2445,-187.0449C2445,-208.6623 2445,-242 2445,-242 2445,-242 1521.8945,-242 1521.8945,-242"/>
<polygon fill="#000000" stroke="#000000" points="1521.8946,-238.5001 1511.8945,-242 1521.8945,-245.5001 1521.8946,-238.5001"/>
</g>
<!-- HttpModule -->
<g id="node7" class="node">
<title>HttpModule</title>
<polygon fill="#8dd3c7" stroke="#000000" points="2373.4387,-187 2370.4387,-191 2349.4387,-191 2346.4387,-187 2288.5613,-187 2288.5613,-151 2373.4387,-151 2373.4387,-187"/>
<text text-anchor="middle" x="2331" y="-164.8" font-family="Times,serif" font-size="14.00" fill="#000000">HttpModule</text>
</g>
<!-- HttpModule&#45;&gt;AppModule -->
<g id="edge6" class="edge">
<title>HttpModule&#45;&gt;AppModule</title>
<path fill="none" stroke="#000000" d="M2331,-187.1289C2331,-207.5724 2331,-238 2331,-238 2331,-238 1521.8188,-238 1521.8188,-238"/>
<polygon fill="#000000" stroke="#000000" points="1521.8188,-234.5001 1511.8188,-238 1521.8188,-241.5001 1521.8188,-234.5001"/>
</g>
<!-- NgbModule.forRoot() -->
<g id="node8" class="node">
<title>NgbModule.forRoot()</title>
<polygon fill="#8dd3c7" stroke="#000000" points="2271.026,-187 2268.026,-191 2247.026,-191 2244.026,-187 2130.974,-187 2130.974,-151 2271.026,-151 2271.026,-187"/>
<text text-anchor="middle" x="2201" y="-164.8" font-family="Times,serif" font-size="14.00" fill="#000000">NgbModule.forRoot()</text>
</g>
<!-- NgbModule.forRoot()&#45;&gt;AppModule -->
<g id="edge7" class="edge">
<title>NgbModule.forRoot()&#45;&gt;AppModule</title>
<path fill="none" stroke="#000000" d="M2201,-187.1061C2201,-206.3391 2201,-234 2201,-234 2201,-234 1521.6614,-234 1521.6614,-234"/>
<polygon fill="#000000" stroke="#000000" points="1521.6614,-230.5001 1511.6614,-234 1521.6613,-237.5001 1521.6614,-230.5001"/>
</g>
<!-- BrowserAnimationsModule -->
<g id="node9" class="node">
<title>BrowserAnimationsModule</title>
<polygon fill="#8dd3c7" stroke="#000000" points="2113.3019,-187 2110.3019,-191 2089.3019,-191 2086.3019,-187 1940.6981,-187 1940.6981,-151 2113.3019,-151 2113.3019,-187"/>
<text text-anchor="middle" x="2027" y="-164.8" font-family="Times,serif" font-size="14.00" fill="#000000">BrowserAnimationsModule</text>
</g>
<!-- BrowserAnimationsModule&#45;&gt;AppModule -->
<g id="edge8" class="edge">
<title>BrowserAnimationsModule&#45;&gt;AppModule</title>
<path fill="none" stroke="#000000" d="M2027,-187.2667C2027,-205.5552 2027,-231 2027,-231 2027,-231 1521.8655,-231 1521.8655,-231"/>
<polygon fill="#000000" stroke="#000000" points="1521.8656,-227.5001 1511.8655,-231 1521.8655,-234.5001 1521.8656,-227.5001"/>
</g>
<!-- RegisterModule -->
<g id="node10" class="node">
<title>RegisterModule</title>
<polygon fill="#8dd3c7" stroke="#000000" points="1923.2022,-187 1920.2022,-191 1899.2022,-191 1896.2022,-187 1816.7978,-187 1816.7978,-151 1923.2022,-151 1923.2022,-187"/>
<text text-anchor="middle" x="1870" y="-164.8" font-family="Times,serif" font-size="14.00" fill="#000000">RegisterModule</text>
</g>
<!-- RegisterModule&#45;&gt;AppModule -->
<g id="edge9" class="edge">
<title>RegisterModule&#45;&gt;AppModule</title>
<path fill="none" stroke="#000000" d="M1870,-187.0336C1870,-204.0597 1870,-227 1870,-227 1870,-227 1521.675,-227 1521.675,-227"/>
<polygon fill="#000000" stroke="#000000" points="1521.6751,-223.5001 1511.675,-227 1521.675,-230.5001 1521.6751,-223.5001"/>
</g>
<!-- LoginModule -->
<g id="node11" class="node">
<title>LoginModule</title>
<polygon fill="#8dd3c7" stroke="#000000" points="1798.493,-187 1795.493,-191 1774.493,-191 1771.493,-187 1705.507,-187 1705.507,-151 1798.493,-151 1798.493,-187"/>
<text text-anchor="middle" x="1752" y="-164.8" font-family="Times,serif" font-size="14.00" fill="#000000">LoginModule</text>
</g>
<!-- LoginModule&#45;&gt;AppModule -->
<g id="edge10" class="edge">
<title>LoginModule&#45;&gt;AppModule</title>
<path fill="none" stroke="#000000" d="M1752,-187.0091C1752,-203.0494 1752,-224 1752,-224 1752,-224 1521.9137,-224 1521.9137,-224"/>
<polygon fill="#000000" stroke="#000000" points="1521.9138,-220.5001 1511.9137,-224 1521.9137,-227.5001 1521.9138,-220.5001"/>
</g>
<!-- AboutModule -->
<g id="node12" class="node">
<title>AboutModule</title>
<polygon fill="#8dd3c7" stroke="#000000" points="1687.0481,-187 1684.0481,-191 1663.0481,-191 1660.0481,-187 1592.9519,-187 1592.9519,-151 1687.0481,-151 1687.0481,-187"/>
<text text-anchor="middle" x="1640" y="-164.8" font-family="Times,serif" font-size="14.00" fill="#000000">AboutModule</text>
</g>
<!-- AboutModule&#45;&gt;AppModule -->
<g id="edge11" class="edge">
<title>AboutModule&#45;&gt;AppModule</title>
<path fill="none" stroke="#000000" d="M1640,-187.1243C1640,-201.7832 1640,-220 1640,-220 1640,-220 1522.0225,-220 1522.0225,-220"/>
<polygon fill="#000000" stroke="#000000" points="1522.0225,-216.5001 1512.0225,-220 1522.0224,-223.5001 1522.0225,-216.5001"/>
</g>
<!-- HomeModule -->
<g id="node13" class="node">
<title>HomeModule</title>
<polygon fill="#8dd3c7" stroke="#000000" points="1574.7619,-187 1571.7619,-191 1550.7619,-191 1547.7619,-187 1481.2381,-187 1481.2381,-151 1574.7619,-151 1574.7619,-187"/>
<text text-anchor="middle" x="1528" y="-164.8" font-family="Times,serif" font-size="14.00" fill="#000000">HomeModule</text>
</g>
<!-- HomeModule&#45;&gt;AppModule -->
<g id="edge12" class="edge">
<title>HomeModule&#45;&gt;AppModule</title>
<path fill="none" stroke="#000000" d="M1496.4737,-187.1061C1496.4737,-187.1061 1496.4737,-205.991 1496.4737,-205.991"/>
<polygon fill="#000000" stroke="#000000" points="1492.9738,-205.9909 1496.4737,-215.991 1499.9738,-205.991 1492.9738,-205.9909"/>
</g>
<!-- ProductModule -->
<g id="node14" class="node">
<title>ProductModule</title>
<polygon fill="#8dd3c7" stroke="#000000" points="1463.5982,-187 1460.5982,-191 1439.5982,-191 1436.5982,-187 1360.4018,-187 1360.4018,-151 1463.5982,-151 1463.5982,-187"/>
<text text-anchor="middle" x="1412" y="-164.8" font-family="Times,serif" font-size="14.00" fill="#000000">ProductModule</text>
</g>
<!-- ProductModule&#45;&gt;AppModule -->
<g id="edge13" class="edge">
<title>ProductModule&#45;&gt;AppModule</title>
<path fill="none" stroke="#000000" d="M1445.8605,-187.1061C1445.8605,-187.1061 1445.8605,-205.991 1445.8605,-205.991"/>
<polygon fill="#000000" stroke="#000000" points="1442.3605,-205.9909 1445.8605,-215.991 1449.3605,-205.991 1442.3605,-205.9909"/>
</g>
<!-- ServiceModule -->
<g id="node15" class="node">
<title>ServiceModule</title>
<polygon fill="#8dd3c7" stroke="#000000" points="1342.5285,-187 1339.5285,-191 1318.5285,-191 1315.5285,-187 1241.4715,-187 1241.4715,-151 1342.5285,-151 1342.5285,-187"/>
<text text-anchor="middle" x="1292" y="-164.8" font-family="Times,serif" font-size="14.00" fill="#000000">ServiceModule</text>
</g>
<!-- ServiceModule&#45;&gt;AppModule -->
<g id="edge14" class="edge">
<title>ServiceModule&#45;&gt;AppModule</title>
<path fill="none" stroke="#000000" d="M1292,-187.1243C1292,-201.7832 1292,-220 1292,-220 1292,-220 1418.2669,-220 1418.2669,-220"/>
<polygon fill="#000000" stroke="#000000" points="1418.2669,-223.5001 1428.2669,-220 1418.2669,-216.5001 1418.2669,-223.5001"/>
</g>
<!-- SupportModule -->
<g id="node16" class="node">
<title>SupportModule</title>
<polygon fill="#8dd3c7" stroke="#000000" points="1222.8837,-187 1219.8837,-191 1198.8837,-191 1195.8837,-187 1119.1163,-187 1119.1163,-151 1222.8837,-151 1222.8837,-187"/>
<text text-anchor="middle" x="1171" y="-164.8" font-family="Times,serif" font-size="14.00" fill="#000000">SupportModule</text>
</g>
<!-- SupportModule&#45;&gt;AppModule -->
<g id="edge15" class="edge">
<title>SupportModule&#45;&gt;AppModule</title>
<path fill="none" stroke="#000000" d="M1171,-187.0091C1171,-203.0494 1171,-224 1171,-224 1171,-224 1418.1105,-224 1418.1105,-224"/>
<polygon fill="#000000" stroke="#000000" points="1418.1105,-227.5001 1428.1105,-224 1418.1105,-220.5001 1418.1105,-227.5001"/>
</g>
<!-- ArticleCreateModule -->
<g id="node17" class="node">
<title>ArticleCreateModule</title>
<polygon fill="#8dd3c7" stroke="#000000" points="1101.4496,-187 1098.4496,-191 1077.4496,-191 1074.4496,-187 966.5504,-187 966.5504,-151 1101.4496,-151 1101.4496,-187"/>
<text text-anchor="middle" x="1034" y="-164.8" font-family="Times,serif" font-size="14.00" fill="#000000">ArticleCreateModule</text>
</g>
<!-- ArticleCreateModule&#45;&gt;AppModule -->
<g id="edge16" class="edge">
<title>ArticleCreateModule&#45;&gt;AppModule</title>
<path fill="none" stroke="#000000" d="M1034,-187.0336C1034,-204.0597 1034,-227 1034,-227 1034,-227 1418.1945,-227 1418.1945,-227"/>
<polygon fill="#000000" stroke="#000000" points="1418.1945,-230.5001 1428.1945,-227 1418.1945,-223.5001 1418.1945,-230.5001"/>
</g>
<!-- ImageUploadModule -->
<g id="node18" class="node">
<title>ImageUploadModule</title>
<polygon fill="#8dd3c7" stroke="#000000" points="948.7422,-187 945.7422,-191 924.7422,-191 921.7422,-187 813.2578,-187 813.2578,-151 948.7422,-151 948.7422,-187"/>
<text text-anchor="middle" x="881" y="-164.8" font-family="Times,serif" font-size="14.00" fill="#000000">ImageUploadModule</text>
</g>
<!-- ImageUploadModule&#45;&gt;AppModule -->
<g id="edge17" class="edge">
<title>ImageUploadModule&#45;&gt;AppModule</title>
<path fill="none" stroke="#000000" d="M881,-187.2667C881,-205.5552 881,-231 881,-231 881,-231 1418.1128,-231 1418.1128,-231"/>
<polygon fill="#000000" stroke="#000000" points="1418.1128,-234.5001 1428.1128,-231 1418.1127,-227.5001 1418.1128,-234.5001"/>
</g>
<!-- SharedModule.forRoot() -->
<g id="node19" class="node">
<title>SharedModule.forRoot()</title>
<polygon fill="#8dd3c7" stroke="#000000" points="795.2919,-187 792.2919,-191 771.2919,-191 768.2919,-187 640.7081,-187 640.7081,-151 795.2919,-151 795.2919,-187"/>
<text text-anchor="middle" x="718" y="-164.8" font-family="Times,serif" font-size="14.00" fill="#000000">SharedModule.forRoot()</text>
</g>
<!-- SharedModule.forRoot()&#45;&gt;AppModule -->
<g id="edge18" class="edge">
<title>SharedModule.forRoot()&#45;&gt;AppModule</title>
<path fill="none" stroke="#000000" d="M718,-187.1061C718,-206.3391 718,-234 718,-234 718,-234 1418.2283,-234 1418.2283,-234"/>
<polygon fill="#000000" stroke="#000000" points="1418.2284,-237.5001 1428.2283,-234 1418.2283,-230.5001 1418.2284,-237.5001"/>
</g>
<!-- AppRoutingModule -->
<g id="node20" class="node">
<title>AppRoutingModule</title>
<polygon fill="#8dd3c7" stroke="#000000" points="622.2744,-187 619.2744,-191 598.2744,-191 595.2744,-187 493.7256,-187 493.7256,-151 622.2744,-151 622.2744,-187"/>
<text text-anchor="middle" x="558" y="-164.8" font-family="Times,serif" font-size="14.00" fill="#000000">AppRoutingModule</text>
</g>
<!-- AppRoutingModule&#45;&gt;AppModule -->
<g id="edge19" class="edge">
<title>AppRoutingModule&#45;&gt;AppModule</title>
<path fill="none" stroke="#000000" d="M558,-187.1289C558,-207.5724 558,-238 558,-238 558,-238 1418.1429,-238 1418.1429,-238"/>
<polygon fill="#000000" stroke="#000000" points="1418.1429,-241.5001 1428.1429,-238 1418.1429,-234.5001 1418.1429,-241.5001"/>
</g>
<!-- BaseRequestOptions -->
<g id="node22" class="node">
<title>BaseRequestOptions</title>
<ellipse fill="#fdb462" stroke="#000000" cx="379" cy="-169" rx="91.4905" ry="18"/>
<text text-anchor="middle" x="379" y="-164.8" font-family="Times,serif" font-size="14.00" fill="#000000">BaseRequestOptions</text>
</g>
<!-- BaseRequestOptions&#45;&gt;AppModule -->
<g id="edge21" class="edge">
<title>BaseRequestOptions&#45;&gt;AppModule</title>
<path fill="none" stroke="#000000" d="M379,-187.0449C379,-208.6623 379,-242 379,-242 379,-242 1418.2325,-242 1418.2325,-242"/>
<polygon fill="#000000" stroke="#000000" points="1418.2325,-245.5001 1428.2325,-242 1418.2324,-238.5001 1418.2325,-245.5001"/>
</g>
<!-- AlertService -->
<g id="node23" class="node">
<title>AlertService</title>
<ellipse fill="#fdb462" stroke="#000000" cx="210" cy="-169" rx="59.6646" ry="18"/>
<text text-anchor="middle" x="210" y="-164.8" font-family="Times,serif" font-size="14.00" fill="#000000">AlertService</text>
</g>
<!-- AlertService&#45;&gt;AppModule -->
<g id="edge22" class="edge">
<title>AlertService&#45;&gt;AppModule</title>
<path fill="none" stroke="#000000" d="M210,-187.0109C210,-209.4852 210,-245 210,-245 210,-245 1418.0775,-245 1418.0775,-245"/>
<polygon fill="#000000" stroke="#000000" points="1418.0776,-248.5001 1428.0775,-245 1418.0775,-241.5001 1418.0776,-248.5001"/>
</g>
<!-- AuthGuard -->
<g id="node24" class="node">
<title>AuthGuard</title>
<ellipse fill="#fdb462" stroke="#000000" cx="78" cy="-169" rx="54.4566" ry="18"/>
<text text-anchor="middle" x="78" y="-164.8" font-family="Times,serif" font-size="14.00" fill="#000000">AuthGuard</text>
</g>
<!-- AuthGuard&#45;&gt;AppModule -->
<g id="edge23" class="edge">
<title>AuthGuard&#45;&gt;AppModule</title>
<path fill="none" stroke="#000000" d="M78,-187.1532C78,-210.7566 78,-249 78,-249 78,-249 1418.3402,-249 1418.3402,-249"/>
<polygon fill="#000000" stroke="#000000" points="1418.3402,-252.5001 1428.3402,-249 1418.3402,-245.5001 1418.3402,-252.5001"/>
</g>
</g>
</svg>
