<?xml version="1.0" encoding="UTF-8" standalone="no"?>
<!DOCTYPE svg PUBLIC "-//W3C//DTD SVG 1.1//EN"
 "http://www.w3.org/Graphics/SVG/1.1/DTD/svg11.dtd">
<!-- Generated by graphviz version 2.40.1 (20161225.0304)
 -->
<!-- Title: dependencies Pages: 1 -->
<svg width="504pt" height="284pt"
 viewBox="0.00 0.00 504.00 284.00" xmlns="http://www.w3.org/2000/svg" xmlns:xlink="http://www.w3.org/1999/xlink">
<g id="graph0" class="graph" transform="scale(1 1) rotate(0) translate(4 280)">
<title>dependencies</title>
<polygon fill="#ffffff" stroke="transparent" points="-4,4 -4,-280 500,-280 500,4 -4,4"/>
<text text-anchor="start" x="227.0091" y="-42.4" font-family="sans-serif" font-weight="bold" font-size="14.00" fill="#000000">Legend</text>
<polygon fill="#ffffb3" stroke="transparent" points="14,-10 14,-30 34,-30 34,-10 14,-10"/>
<text text-anchor="start" x="37.629" y="-15.4" font-family="sans-serif" font-size="14.00" fill="#000000"> &#160;Declarations</text>
<polygon fill="#8dd3c7" stroke="transparent" points="127,-10 127,-30 147,-30 147,-10 127,-10"/>
<text text-anchor="start" x="150.7251" y="-15.4" font-family="sans-serif" font-size="14.00" fill="#000000"> &#160;Module</text>
<polygon fill="#80b1d3" stroke="transparent" points="213,-10 213,-30 233,-30 233,-10 213,-10"/>
<text text-anchor="start" x="236.7812" y="-15.4" font-family="sans-serif" font-size="14.00" fill="#000000"> &#160;Bootstrap</text>
<polygon fill="#fdb462" stroke="transparent" points="310,-10 310,-30 330,-30 330,-10 310,-10"/>
<text text-anchor="start" x="333.6732" y="-15.4" font-family="sans-serif" font-size="14.00" fill="#000000"> &#160;Providers</text>
<polygon fill="#fb8072" stroke="transparent" points="406,-10 406,-30 426,-30 426,-10 406,-10"/>
<text text-anchor="start" x="429.7258" y="-15.4" font-family="sans-serif" font-size="14.00" fill="#000000"> &#160;Exports</text>
<g id="clust1" class="cluster">
<title>cluster_SupportModule</title>
<polygon fill="none" stroke="#000000" stroke-dasharray="1,5" points="17.5,-70 17.5,-268 478.5,-268 478.5,-70 17.5,-70"/>
</g>
<g id="clust2" class="cluster">
<title>cluster_SupportModule_declarations</title>
<polygon fill="none" stroke="#000000" points="328.5,-78 328.5,-130 470.5,-130 470.5,-78 328.5,-78"/>
</g>
<g id="clust4" class="cluster">
<title>cluster_SupportModule_imports</title>
<polygon fill="none" stroke="#000000" points="25.5,-78 25.5,-130 320.5,-130 320.5,-78 25.5,-78"/>
</g>
<g id="clust5" class="cluster">
<title>cluster_SupportModule_exports</title>
<polygon fill="none" stroke="#000000" points="183.5,-208 183.5,-260 329.5,-260 329.5,-208 183.5,-208"/>
</g>
<!-- SupportComponent -->
<g id="node1" class="node">
<title>SupportComponent</title>
<polygon fill="#ffffb3" stroke="#000000" points="462.1666,-122 336.8334,-122 336.8334,-86 462.1666,-86 462.1666,-122"/>
<text text-anchor="middle" x="399.5" y="-99.8" font-family="Times,serif" font-size="14.00" fill="#000000">SupportComponent</text>
</g>
<!-- SupportModule -->
<g id="node2" class="node">
<title>SupportModule</title>
<polygon fill="#8dd3c7" stroke="#000000" points="308.3837,-187 305.3837,-191 284.3837,-191 281.3837,-187 204.6163,-187 204.6163,-151 308.3837,-151 308.3837,-187"/>
<text text-anchor="middle" x="256.5" y="-164.8" font-family="Times,serif" font-size="14.00" fill="#000000">SupportModule</text>
</g>
<!-- SupportComponent&#45;&gt;SupportModule -->
<g id="edge1" class="edge">
<title>SupportComponent&#45;&gt;SupportModule</title>
<path fill="none" stroke="#000000" d="M399.5,-122.1061C399.5,-141.3391 399.5,-169 399.5,-169 399.5,-169 318.5308,-169 318.5308,-169"/>
<polygon fill="#000000" stroke="#000000" points="318.5308,-165.5001 308.5308,-169 318.5308,-172.5001 318.5308,-165.5001"/>
</g>
<!-- SupportComponent  -->
<g id="node5" class="node">
<title>SupportComponent </title>
<polygon fill="#fb8072" stroke="#000000" points="321.1663,-252 191.8337,-252 191.8337,-216 321.1663,-216 321.1663,-252"/>
<text text-anchor="middle" x="256.5" y="-229.8" font-family="Times,serif" font-size="14.00" fill="#000000">SupportComponent </text>
</g>
<!-- SupportModule&#45;&gt;SupportComponent  -->
<g id="edge4" class="edge">
<title>SupportModule&#45;&gt;SupportComponent </title>
<path fill="none" stroke="#000000" stroke-dasharray="5,2" d="M256.5,-187.1061C256.5,-187.1061 256.5,-205.991 256.5,-205.991"/>
<polygon fill="#000000" stroke="#000000" points="253.0001,-205.9909 256.5,-215.991 260.0001,-205.991 253.0001,-205.9909"/>
</g>
<!-- CommonModule -->
<g id="node3" class="node">
<title>CommonModule</title>
<polygon fill="#8dd3c7" stroke="#000000" points="312.1681,-122 309.1681,-126 288.1681,-126 285.1681,-122 200.8319,-122 200.8319,-86 312.1681,-86 312.1681,-122"/>
<text text-anchor="middle" x="256.5" y="-99.8" font-family="Times,serif" font-size="14.00" fill="#000000">CommonModule</text>
</g>
<!-- CommonModule&#45;&gt;SupportModule -->
<g id="edge2" class="edge">
<title>CommonModule&#45;&gt;SupportModule</title>
<path fill="none" stroke="#000000" d="M256.5,-122.1061C256.5,-122.1061 256.5,-140.991 256.5,-140.991"/>
<polygon fill="#000000" stroke="#000000" points="253.0001,-140.9909 256.5,-150.991 260.0001,-140.991 253.0001,-140.9909"/>
</g>
<!-- SupportRoutingModule -->
<g id="node4" class="node">
<title>SupportRoutingModule</title>
<polygon fill="#8dd3c7" stroke="#000000" points="183.0014,-122 180.0014,-126 159.0014,-126 156.0014,-122 33.9986,-122 33.9986,-86 183.0014,-86 183.0014,-122"/>
<text text-anchor="middle" x="108.5" y="-99.8" font-family="Times,serif" font-size="14.00" fill="#000000">SupportRoutingModule</text>
</g>
<!-- SupportRoutingModule&#45;&gt;SupportModule -->
<g id="edge3" class="edge">
<title>SupportRoutingModule&#45;&gt;SupportModule</title>
<path fill="none" stroke="#000000" d="M108.5,-122.1061C108.5,-141.3391 108.5,-169 108.5,-169 108.5,-169 194.3207,-169 194.3207,-169"/>
<polygon fill="#000000" stroke="#000000" points="194.3208,-172.5001 204.3207,-169 194.3207,-165.5001 194.3208,-172.5001"/>
</g>
</g>
</svg>
